<svg id="Capa_1" data-name="Capa 1" xmlns="http://www.w3.org/2000/svg" viewBox="0 0 132.32 26.23"><defs><style>.cls-1{fill:#db5a42;stroke:#db5a42;stroke-miterlimit:10;}</style></defs><path class="cls-1" d="M12.5,15v9.52H9V15L1.24,1.12h4L10.72,11.7,16.26,1.12h3.95Z" transform="translate(-0.39 -0.63)"/><path class="cls-1" d="M25.15,18a3.62,3.62,0,0,0,1,2.71,3.68,3.68,0,0,0,2.72,1,4,4,0,0,0,2.7-.85,3.12,3.12,0,0,0,1-2.44l.25,3.5A4.93,4.93,0,0,1,30.93,24a5.41,5.41,0,0,1-3.08.84A5.92,5.92,0,0,1,23.23,23a7.11,7.11,0,0,1-1.63-5V7.83h3.55ZM32.49,7.83H36V24.55H32.49Z" transform="translate(-0.39 -0.63)"/><path class="cls-1" d="M44.49,23.94a6.11,6.11,0,0,1-2.67-2.48,7.9,7.9,0,0,1-.92-3.93V14.77a7.73,7.73,0,0,1,.92-3.88,6.13,6.13,0,0,1,2.67-2.46,9.68,9.68,0,0,1,4.22-.84,10.84,10.84,0,0,1,2.66.31,8.09,8.09,0,0,1,2.23.91,6.13,6.13,0,0,1,1.66,1.45L52.7,12.39a5.28,5.28,0,0,0-1.79-1.24,5.48,5.48,0,0,0-2.15-.44,4.46,4.46,0,0,0-3.18,1.07,3.9,3.9,0,0,0-1.13,3v2.76a4,4,0,0,0,1.12,3.06,4.42,4.42,0,0,0,3.19,1.08,5.26,5.26,0,0,0,3.94-1.79l2.56,2.29a6.23,6.23,0,0,1-1.67,1.42,8,8,0,0,1-2.24.9,11.23,11.23,0,0,1-2.64.31A9.54,9.54,0,0,1,44.49,23.94Z" transform="translate(-0.39 -0.63)"/><path class="cls-1" d="M60,23.51a4.61,4.61,0,0,1-1.65-3.89,4.54,4.54,0,0,1,1.52-3.72,7.06,7.06,0,0,1,4.57-1.24h5.14l.24,2.64H64.41a3.15,3.15,0,0,0-2.08.58,2.13,2.13,0,0,0-.69,1.74,2.12,2.12,0,0,0,.92,1.89,5,5,0,0,0,2.77.61,8.61,8.61,0,0,0,3-.4,1.34,1.34,0,0,0,1-1.26l.37,2.35a4,4,0,0,1-1.16,1.11,5.17,5.17,0,0,1-1.59.66,9.11,9.11,0,0,1-2,.22A8.08,8.08,0,0,1,60,23.51ZM69.37,14a3.37,3.37,0,0,0-1-2.55,3.71,3.71,0,0,0-2.69-.91,7.52,7.52,0,0,0-2.11.3,6.63,6.63,0,0,0-1.84.86L59.19,10A6.86,6.86,0,0,1,61.9,8.22a10.5,10.5,0,0,1,3.73-.63,9.14,9.14,0,0,1,3.84.73,5.37,5.37,0,0,1,2.44,2.13,6.4,6.4,0,0,1,.84,3.36V24.55H69.37Z" transform="translate(-0.39 -0.63)"/><path class="cls-1" d="M78.49,1.12H82V24.55H78.49Zm1.72,0H94.74V4.25H80.21Zm0,10.24H92.83v3.12H80.21Zm0,10.07H94.74v3.12H80.21Z" transform="translate(-0.39 -0.63)"/><path class="cls-1" d="M104.52,15.32l1.71,3-4.6,6.2H97.7Zm.11,1.63L98,7.83h4l5.19,7.49L114,24.55H110Zm1.15-3.19,4-5.93h4l-6.41,9Z" transform="translate(-0.39 -0.63)"/><path class="cls-1" d="M117.87,2.83h3.55V26.35h-3.55ZM123,19.05a4.48,4.48,0,0,1-1.84-2.12l.24-3.5a3.76,3.76,0,0,0,.42,1.84,2.83,2.83,0,0,0,1.21,1.16,4.19,4.19,0,0,0,1.92.4,3.62,3.62,0,0,0,2.72-1,3.81,3.81,0,0,0,1-2.8V9.42a3.92,3.92,0,0,0-1-2.85,3.56,3.56,0,0,0-2.72-1,4.32,4.32,0,0,0-1.92.39,2.71,2.71,0,0,0-1.21,1.13,3.63,3.63,0,0,0-.42,1.8l-.37-3.22a6,6,0,0,1,2.15-2.27,5.58,5.58,0,0,1,2.94-.79,6.43,6.43,0,0,1,3.28.79,5.2,5.2,0,0,1,2.08,2.33,8.77,8.77,0,0,1,.71,3.69V13a8.31,8.31,0,0,1-.73,3.65A5.16,5.16,0,0,1,129.34,19a6.79,6.79,0,0,1-3.38.8A5.64,5.64,0,0,1,123,19.05Z" transform="translate(-0.39 -0.63)"/></svg>